<?xml version="1.0" standalone="no"?><!DOCTYPE svg PUBLIC "-//W3C//DTD SVG 1.1//EN" "http://www.w3.org/Graphics/SVG/1.1/DTD/svg11.dtd"><svg t="1586866521520" class="icon" viewBox="0 0 1024 1024" version="1.1" xmlns="http://www.w3.org/2000/svg" p-id="1794" xmlns:xlink="http://www.w3.org/1999/xlink" width="32" height="32"><defs><style type="text/css"></style></defs><path d="M512 1024C229.233778 1024 0 794.766222 0 512S229.233778 0 512 0s512 229.233778 512 512-229.233778 512-512 512z m156.444444-510.592a54.257778 54.257778 0 0 0-15.601777-37.774222 53.475556 53.475556 0 0 0-75.662223 0 50.019556 50.019556 0 0 0-15.616 37.774222c-0.241778 14.208 5.404444 27.875556 15.601778 37.774222 1.863111 2.275556 4.110222 4.181333 6.627556 5.674667a59.178667 59.178667 0 0 1-69.987556 10.382222 78.421333 78.421333 0 0 1-36.892444-43.918222 141.454222 141.454222 0 0 1 3.783111-38.257778 53.816889 53.816889 0 0 0 27.904-47.217778 52.849778 52.849778 0 0 0-15.616-37.76 52.536889 52.536889 0 0 0-75.662222 0 53.788444 53.788444 0 0 0-15.601778 37.774223c0.071111 14.136889 5.674667 27.690667 15.601778 37.774222 4.209778 3.982222 9.002667 7.324444 14.193777 9.912889 3.2 11.832889 4.167111 24.177778 2.844445 36.366222a78.890667 78.890667 0 0 1-37.376 44.856889 61.070222 61.070222 0 0 1-71.395556-10.865778A53.802667 53.802667 0 0 0 348.259556 512a53.404444 53.404444 0 0 0-52.963556-51.939556 54.428444 54.428444 0 0 0-37.831111 15.587556 53.319111 53.319111 0 0 0 0 75.548444 52.977778 52.977778 0 0 0 23.182222 13.696l44.444445 185.102223c2.346667 9.329778 10.695111 15.928889 20.337777 16.071111h219.434667a20.807111 20.807111 0 0 0 20.337778-16.071111l44.444444-185.102223A53.845333 53.845333 0 0 0 668.444444 513.422222zM469.333333 196.437333c-26.823111 26.211556-73.784889 59.733333-12.8 109.112889 60.373333 48.768 77.454222 24.988444 105.514667-3.043555 19.512889-19.512889 67.697778 21.333333 110.364444 63.388444 42.097778 42.069333 82.958222 90.837333 63.431112 110.336-28.046222 27.448889-51.825778 44.515556-3.043556 105.472 48.782222 60.956444 81.720889 14.008889 108.558222-12.8 31.715556-31.089778 2.432-146.304-111.601778-260.309333-114.048-113.379556-229.304889-143.246222-260.408888-112.156445z" fill="#D7A26A" p-id="1795"></path></svg>