<?xml version="1.0" standalone="no"?><!DOCTYPE svg PUBLIC "-//W3C//DTD SVG 1.1//EN" "http://www.w3.org/Graphics/SVG/1.1/DTD/svg11.dtd"><svg t="1586856207207" class="icon" viewBox="0 0 1024 1024" version="1.1" xmlns="http://www.w3.org/2000/svg" p-id="1911" data-spm-anchor-id="a313x.7781069.0.i3" width="32" height="32" xmlns:xlink="http://www.w3.org/1999/xlink"><defs><style type="text/css"></style></defs><path d="M618.496 306.176c-20.48 0-38.912 2.048-56.32 8.192 21.504 17.408 39.936 38.912 55.296 62.464h1.024c71.68 0 130.048 58.368 130.048 130.048s-58.368 130.048-130.048 130.048c-17.408 0-35.84-3.072-51.2-10.24 9.216-13.312 17.408-27.648 23.552-40.96 2.048-6.144 5.12-10.24 6.144-16.384 6.144-18.432 9.216-39.936 9.216-61.44 0-110.592-90.112-200.704-200.704-200.704S204.8 396.288 204.8 506.88s90.112 200.704 200.704 200.704c20.48 0 38.912-2.048 56.32-8.192-21.504-17.408-39.936-38.912-55.296-62.464h-1.024c-71.68 0-130.048-58.368-130.048-130.048s58.368-130.048 130.048-130.048c17.408 0 35.84 3.072 52.224 10.24-24.576 32.768-39.936 74.752-39.936 119.808 0 110.592 90.112 200.704 200.704 200.704S819.2 617.472 819.2 506.88s-90.112-200.704-200.704-200.704z" p-id="1912" fill="#2b4b6b"></path></svg>